<svg xmlns="http://www.w3.org/2000/svg" viewBox="0 0 512 512">
  <defs>
    <linearGradient id="bg" x1="0%" y1="0%" x2="100%" y2="100%">
      <stop offset="0%" stop-color="#9333EA"/>
      <stop offset="100%" stop-color="#EC4899"/>
    </linearGradient>
    <radialGradient id="ball" cx="40%" cy="35%" r="55%">
      <stop offset="0%" stop-color="#E8D5B5"/>
      <stop offset="60%" stop-color="#C4956A"/>
      <stop offset="100%" stop-color="#A67B4A"/>
    </radialGradient>
    <radialGradient id="ballShadow" cx="50%" cy="50%" r="50%">
      <stop offset="70%" stop-color="transparent" stop-opacity="0"/>
      <stop offset="100%" stop-color="rgba(0,0,0,0.15)"/>
    </radialGradient>
  </defs>
  <rect width="512" height="512" rx="96" fill="url(#bg)"/>
  <circle cx="256" cy="268" r="140" fill="url(#ball)" stroke="#B8895A" stroke-width="2"/>
  <circle cx="256" cy="268" r="140" fill="url(#ballShadow)"/>
  <g stroke="#A67B4A" stroke-width="2.5" fill="none" opacity="0.6">
    <path d="M140 240 C180 200 220 260 256 220 C292 180 340 230 370 250"/>
    <path d="M150 290 C190 320 230 280 270 310 C310 340 350 300 375 285"/>
    <path d="M170 210 C200 180 240 210 280 190 C320 170 360 200 380 220"/>
    <path d="M145 260 C185 240 225 290 265 260 C305 230 345 270 370 260"/>
    <path d="M160 320 C200 340 240 300 280 330 C320 360 355 320 375 310"/>
    <path d="M180 190 C210 170 250 195 290 175 C330 155 365 180 385 200"/>
  </g>
  <g stroke="#8B6B3E" stroke-width="3" fill="none" stroke-linecap="round">
    <path d="M168 310 C210 250 280 230 340 280" opacity="0.5"/>
    <path d="M182 220 C220 270 300 300 350 240" opacity="0.5"/>
  </g>
  <path d="M240 130 Q220 100 200 110 Q180 120 190 140" stroke="#C4956A" stroke-width="4" fill="none" stroke-linecap="round"/>
  <path d="M260 130 Q280 95 300 105 Q320 115 310 135" stroke="#C4956A" stroke-width="4" fill="none" stroke-linecap="round"/>
  <g stroke="#C4956A" stroke-width="3.5" fill="none" stroke-linecap="round" opacity="0.7">
    <path d="M155 350 Q180 390 220 380"/>
    <path d="M350 340 Q320 395 280 390"/>
  </g>
</svg>